<svg id="Layer_1" data-name="Layer 1" xmlns="http://www.w3.org/2000/svg" width="400" height="200" viewBox="0 0 408.5 408.5"><defs><style>.cls-1{fill:#3f4c6b;}</style></defs><title>Kollab_Home_7</title><g id="Layer_1-2" data-name="Layer 1"><path class="cls-1" d="M226.49,348.37l29.68-29.68,61.53-61.53,29.68-29.68A89,89,0,0,0,457,117.86l-46,46a32,32,0,0,1-45.26,0l-16.62-16.62a32,32,0,0,1,0-45.26l46-46A89,89,0,0,0,285.5,165.62l-29.68,29.68L194.3,256.82,164.62,286.5A89,89,0,0,0,55,396.12l46-46a32,32,0,0,1,45.26,0l16.62,16.62a32,32,0,0,1,0,45.26l-46,46A89,89,0,0,0,226.49,348.37Zm1.92-42.58a15,15,0,0,1-21.21-21.21L285,206.79A15,15,0,1,1,306.2,228Z" transform="translate(-51.75 -52.74)"/></g></svg>