<svg xmlns="http://www.w3.org/2000/svg" width="24" height="24" viewBox="0 0 24 24">
  <metadata><?xpacket begin="﻿" id="W5M0MpCehiHzreSzNTczkc9d"?>
<x:xmpmeta xmlns:x="adobe:ns:meta/" x:xmptk="Adobe XMP Core 5.6-c140 79.160451, 2017/05/06-01:08:21        ">
   <rdf:RDF xmlns:rdf="http://www.w3.org/1999/02/22-rdf-syntax-ns#">
      <rdf:Description rdf:about=""/>
   </rdf:RDF>
</x:xmpmeta>
                                                                                                    
                                                                                                    
                                                                                                    
                                                                                                    
                                                                                                    
                                                                                                    
                                                                                                    
                                                                                                    
                                                                                                    
                                                                                                    
                                                                                                    
                                                                                                    
                                                                                                    
                                                                                                    
                                                                                                    
                                                                                                    
                                                                                                    
                                                                                                    
                                                                                                    
                                                                                                    
                           
<?xpacket end="w"?></metadata>
<defs>
    <style>
      .cls-1 {
        fill: #acacac;
        fill-rule: evenodd;
      }
    </style>
  </defs>
  <path class="cls-1" d="M20.436,12.462l2.557,0.451L22.539,15.49l-2.583-.456a8.129,8.129,0,0,1-1.068,2.014l1.869,1.87-1.849,1.85L17.038,18.9a8.2,8.2,0,0,1-2.014,1.056l0.458,2.6-2.575.454L12.453,20.43a8.164,8.164,0,0,1-1.589-.119c-0.235-.041-0.465-0.094-0.691-0.154L9.079,22.5,6.709,21.4l1.08-2.318a8.164,8.164,0,0,1-1.731-1.561l-2.2,1.268L2.555,16.521,4.7,15.279a8.11,8.11,0,0,1-.581-3.038l-2.394-.422L2.183,9.241,4.551,9.659a8.126,8.126,0,0,1,1.107-2.15L3.966,5.816l1.849-1.85L7.5,5.649A8.179,8.179,0,0,1,9.651,4.53L9.237,2.182l2.575-.454L12.23,4.1a7.612,7.612,0,0,1,2.382.338l1.027-2.2,2.37,1.106L16.967,5.575a8.165,8.165,0,0,1,1.7,1.635l2.184-1.262,1.307,2.266-2.21,1.277A8.125,8.125,0,0,1,20.436,12.462ZM12.957,8.431a3.891,3.891,0,1,0,3.154,4.508A3.889,3.889,0,0,0,12.957,8.431Z"/>
</svg>
