<svg xmlns="http://www.w3.org/2000/svg" width="28" height="120" viewBox="0 0 28 120">
  <metadata><?xpacket begin="﻿" id="W5M0MpCehiHzreSzNTczkc9d"?>
<x:xmpmeta xmlns:x="adobe:ns:meta/" x:xmptk="Adobe XMP Core 5.6-c138 79.159824, 2016/09/14-01:09:01        ">
   <rdf:RDF xmlns:rdf="http://www.w3.org/1999/02/22-rdf-syntax-ns#">
      <rdf:Description rdf:about=""/>
   </rdf:RDF>
</x:xmpmeta>
                                                                                                    
                                                                                                    
                                                                                                    
                                                                                                    
                                                                                                    
                                                                                                    
                                                                                                    
                                                                                                    
                                                                                                    
                                                                                                    
                                                                                                    
                                                                                                    
                                                                                                    
                                                                                                    
                                                                                                    
                                                                                                    
                                                                                                    
                                                                                                    
                                                                                                    
                                                                                                    
                           
<?xpacket end="w"?></metadata>
<defs>
    <style>
      .cls-1 {
        fill: #6d4090;
      }

      .cls-1, .cls-2 {
        fill-rule: evenodd;
      }

      .cls-2 {
        fill: #fff;
      }
    </style>
  </defs>
  <path id="Rounded_Rectangle_1" data-name="Rounded Rectangle 1" class="cls-1" d="M14.5,120h-1A13.5,13.5,0,0,1,0,106.5v-93A13.5,13.5,0,0,1,13.5,0h1C14.469-.027,28.016.04,28,0s0,13.486,0,13.5v93c0.069-.014.032,13.391,0,13.5C27.986,120.047,14.493,120,14.5,120Z"/>
  <path id="Site_Feedback" data-name="Site Feedback" class="cls-2" d="M16.439,105.605a1.131,1.131,0,0,1,.9.417,1.543,1.543,0,0,1,.358,1.043,3.117,3.117,0,0,1-1.4,2.5h1.736a4.028,4.028,0,0,0,.87-2.513,2.7,2.7,0,0,0-.718-1.949,2.467,2.467,0,0,0-1.866-.75,3.066,3.066,0,0,0-2.657,1.7l-0.618,1.019a3.9,3.9,0,0,1-.786.994,1.236,1.236,0,0,1-.8.31,0.947,0.947,0,0,1-.793-0.42,1.761,1.761,0,0,1-.31-1.073,3.05,3.05,0,0,1,.993-2.167H9.785a3.687,3.687,0,0,0-.672,2.14,2.81,2.81,0,0,0,.7,1.983,2.377,2.377,0,0,0,1.832.763,2.263,2.263,0,0,0,1.33-.4,4.635,4.635,0,0,0,1.175-1.357l0.631-1.013a2.126,2.126,0,0,1,1.654-1.226h0Zm-6.365-4.734a0.712,0.712,0,0,0,.509.214,0.72,0.72,0,0,0,.516-0.214,0.663,0.663,0,0,0,.222-0.493,0.69,0.69,0,0,0-.219-0.513,0.719,0.719,0,0,0-.52-0.213,0.726,0.726,0,0,0-.731.726A0.663,0.663,0,0,0,10.074,100.871Zm8.712,0.107V99.765H12.5v1.213h6.289Zm-5.168-4.154V95.758h2.789a5.664,5.664,0,0,0,1.159-.077,1.821,1.821,0,0,0,.492-0.19A1.407,1.407,0,0,0,18.4,95.2a1.992,1.992,0,0,0,.5-1.386,3,3,0,0,0-.4-1.526H17.33a2.66,2.66,0,0,1,.444,1.38,0.874,0.874,0,0,1-1.078.873H13.618V92.606H12.5v1.939H11.2l2.3,2.279h0.123Zm1.976-12.678a3.555,3.555,0,0,0-2.345.727,2.4,2.4,0,0,0-.875,1.946,2.618,2.618,0,0,0,.9,2.06,3.4,3.4,0,0,0,2.335.793,3.616,3.616,0,0,0,1.685-.377,3.106,3.106,0,0,0,1.159-1,2.839,2.839,0,0,0,.431-1.64,4.529,4.529,0,0,0-.164-1.29,4.006,4.006,0,0,0-.547-1.11H16.954a3.591,3.591,0,0,1,.766,2.213,1.918,1.918,0,0,1-.533,1.4,2.079,2.079,0,0,1-1.436.59V84.146H15.594Zm-1.736,3.742a1.474,1.474,0,0,1-.4-1.07,1.373,1.373,0,0,1,.4-1.04,1.762,1.762,0,0,1,1.148-.433v3.086A2.017,2.017,0,0,1,13.858,87.889Zm4.929-13.123V73.433h-4.45V69.8H13.119v3.632H10.453V69.8H9.237v4.965h9.55ZM15.594,61.474a3.555,3.555,0,0,0-2.345.726,2.4,2.4,0,0,0-.875,1.946,2.618,2.618,0,0,0,.9,2.06A3.4,3.4,0,0,0,15.608,67a3.616,3.616,0,0,0,1.685-.377,3.105,3.105,0,0,0,1.159-1,2.839,2.839,0,0,0,.431-1.64,4.529,4.529,0,0,0-.164-1.29,4.006,4.006,0,0,0-.547-1.11H16.954a3.591,3.591,0,0,1,.766,2.213,1.918,1.918,0,0,1-.533,1.4,2.079,2.079,0,0,1-1.436.59V61.474H15.594Zm-1.736,3.742a1.474,1.474,0,0,1-.4-1.07,1.373,1.373,0,0,1,.4-1.04,1.762,1.762,0,0,1,1.148-.433V65.76A2.017,2.017,0,0,1,13.858,65.217Zm1.736-12.328a3.555,3.555,0,0,0-2.345.727,2.4,2.4,0,0,0-.875,1.946,2.618,2.618,0,0,0,.9,2.06,3.4,3.4,0,0,0,2.335.793,3.616,3.616,0,0,0,1.685-.377,3.106,3.106,0,0,0,1.159-1,2.839,2.839,0,0,0,.431-1.64,4.529,4.529,0,0,0-.164-1.29A4.006,4.006,0,0,0,18.171,53H16.954a3.591,3.591,0,0,1,.766,2.213,1.918,1.918,0,0,1-.533,1.4,2.079,2.079,0,0,1-1.436.59V52.889H15.594Zm-1.736,3.742a1.474,1.474,0,0,1-.4-1.07,1.373,1.373,0,0,1,.4-1.04,1.762,1.762,0,0,1,1.148-.433v3.086A2.017,2.017,0,0,1,13.858,56.631Zm-1.23-11.2a3.858,3.858,0,0,0-.267,1.333,2.86,2.86,0,0,0,.9,2.169,3.183,3.183,0,0,0,2.283.85,3.36,3.36,0,0,0,2.365-.81,2.8,2.8,0,0,0,.882-2.169V44.216H9.237v1.22h3.391Zm5.093,0.94a3.907,3.907,0,0,1-.109,1.126,1.444,1.444,0,0,1-.424.593,2.184,2.184,0,0,1-1.5.467,2.392,2.392,0,0,1-1.641-.537,1.827,1.827,0,0,1-.608-1.443,2.467,2.467,0,0,1,.294-1.146H17.72v0.94Zm0.718-5.8a4.054,4.054,0,0,0,.328-1.043,6.451,6.451,0,0,0,.13-1.25A3.162,3.162,0,0,0,18,35.92a3.3,3.3,0,0,0-2.417-.883,3.536,3.536,0,0,0-2.317.74,2.353,2.353,0,0,0-.9,1.906,2.755,2.755,0,0,0,.588,1.68H9.237v1.213h9.2Zm-4.915-2.593a1.524,1.524,0,0,1,.588-1.243,2.345,2.345,0,0,1,1.524-.477,2.223,2.223,0,0,1,1.511.51,1.662,1.662,0,0,1,.588,1.316,4.287,4.287,0,0,1-.191,1.273h-3.4a2.115,2.115,0,0,1-.615-1.38h0Zm0.407-10.142a1.823,1.823,0,0,0-1.022.563A2.309,2.309,0,0,0,12.374,30a2.487,2.487,0,0,0,.854,2.033h1.36A2.643,2.643,0,0,1,13.536,30.1a0.991,0.991,0,0,1,1.135-1.106h0.335l0.547,1.553a2.809,2.809,0,0,0,.742,1.183,1.555,1.555,0,0,0,1.063.417,1.492,1.492,0,0,0,1.09-.427,1.434,1.434,0,0,0,.434-1.066A2.6,2.6,0,0,0,18.267,29a0.812,0.812,0,0,0,.629-0.92,1.408,1.408,0,0,0-.1-0.523,3.932,3.932,0,0,0-.373-0.663H17.665a1.452,1.452,0,0,1,.335.686q0,0.213-.321.213H15.006A8.629,8.629,0,0,0,13.929,27.841Zm4.1,2.223a0.847,0.847,0,0,1-.246.63,0.938,0.938,0,0,1-1.275-.013A2.73,2.73,0,0,1,16,29.8l-0.321-.813h1.866a1.507,1.507,0,0,1,.485,1.073h0Zm-0.294-9.279a1.96,1.96,0,0,1-2.1,2.106,2.182,2.182,0,0,1-1.507-.527,1.722,1.722,0,0,1-.591-1.346,3.171,3.171,0,0,1,.6-1.706H12.812a5.472,5.472,0,0,0-.345.93,3.581,3.581,0,0,0-.092.85,2.834,2.834,0,0,0,.909,2.193,3.4,3.4,0,0,0,2.393.833,3.207,3.207,0,0,0,2.345-.856,3.066,3.066,0,0,0,.875-2.3,4.989,4.989,0,0,0-.349-1.786h-1.23a3.925,3.925,0,0,1,.417,1.606h0Zm-2.157-6.3,3.21-3.072V9.786l-3.213,3.149L12.5,10.319v1.44Zm3.21,1.266V14.538H9.237v1.213h9.55Z"/>
</svg>
