<?xml version="1.0" encoding="UTF-8"?><svg id="Layer_1" xmlns="http://www.w3.org/2000/svg" viewBox="0 0 1024 1024"><defs><style>.cls-1{fill:#eee;stroke-width:0px;}</style></defs><path class="cls-1" d="M928.56,96H96.33c-34.67,0-62.78,28.11-62.78,62.78v680.56c0,34.67,28.11,62.78,62.78,62.78h832.22c34.67,0,62.78-28.11,62.78-62.78V158.78c0-34.67-28.11-62.78-62.78-62.78ZM425.47,704.43c-28.73,21.81-65.19,32.71-109.36,32.71-54.66,0-99.58-18.67-134.77-56.01-35.19-37.34-52.78-88.39-52.78-153.16,0-68.51,17.69-121.71,53.06-159.61,35.38-37.9,81.89-56.85,139.54-56.85,50.35,0,91.25,14.88,122.69,44.64,18.71,17.6,32.75,42.86,42.11,75.81l-82.26,19.65c-4.87-21.34-15.02-38.18-30.46-50.54-15.44-12.35-34.21-18.53-56.29-18.53-30.51,0-55.27,10.95-74.26,32.85-19,21.9-28.5,57.37-28.5,106.41,0,52.04,9.36,89.1,28.08,111.18,18.71,22.09,43.05,33.13,73,33.13,22.08,0,41.08-7.02,56.99-21.06,15.91-14.04,27.33-36.12,34.25-66.26l80.58,25.55c-12.35,44.92-32.9,78.29-61.63,100.09ZM840.72,704.43c-28.73,21.81-65.19,32.71-109.36,32.71-54.66,0-99.58-18.67-134.77-56.01-35.19-37.34-52.78-88.39-52.78-153.16,0-68.51,17.69-121.71,53.06-159.61,35.38-37.9,81.89-56.85,139.54-56.85,50.35,0,91.25,14.88,122.69,44.64,18.71,17.6,32.75,42.86,42.11,75.81l-82.26,19.65c-4.87-21.34-15.02-38.18-30.46-50.54-15.44-12.35-34.21-18.53-56.29-18.53-30.51,0-55.27,10.95-74.26,32.85-19,21.9-28.5,57.37-28.5,106.41,0,52.04,9.36,89.1,28.08,111.18,18.71,22.09,43.05,33.13,73,33.13,22.08,0,41.08-7.02,57-21.06,15.91-14.04,27.33-36.12,34.25-66.26l80.58,25.55c-12.35,44.92-32.9,78.29-61.63,100.09Z"/></svg>