<svg xmlns="http://www.w3.org/2000/svg" width="64" height="64" viewBox="0 0 64 64">
  <defs>
    <style>
      .cls-1 {
        fill: #e1e1e1;
        fill-rule: evenodd;
      }
    </style>
  </defs>
  <path class="cls-1" d="M13.895,49.438c-5.5-5.5-6.371-13.235-1.989-17.617l2.977-2.977c3.212-3.212,8.225-3.588,12.839-1.4l-4.832,4.831a5.16,5.16,0,0,0-3.106,1.472l-2.977,2.977c-2.3,2.3-1.94,6.246.809,8.994s6.7,3.1,8.994.809l2.977-2.977a5.16,5.16,0,0,0,1.472-3.106l4.831-4.831c2.186,4.614,1.81,9.628-1.4,12.839l-2.977,2.977C27.13,55.809,19.392,54.935,13.895,49.438ZM41.773,26.462L28.129,40.105c-1.027,1.027-2.958.763-4.311-.59s-1.618-3.284-.59-4.311L36.871,21.56c1.028-1.027,2.958-.763,4.311.59S42.8,25.434,41.773,26.462Zm-4.495,7.762,4.831-4.831a5.159,5.159,0,0,0,3.106-1.472l2.977-2.977c2.3-2.3,1.94-6.246-.809-8.995s-6.7-3.1-8.995-.809l-2.977,2.977a5.16,5.16,0,0,0-1.472,3.106l-4.831,4.831c-2.186-4.614-1.809-9.627,1.4-12.839l2.977-2.977c4.382-4.382,12.12-3.508,17.617,1.989s6.371,13.235,1.989,17.617l-2.977,2.977C46.905,36.034,41.892,36.41,37.278,34.224Z"/>
</svg>
