<svg xmlns="http://www.w3.org/2000/svg" width="64" height="64" viewBox="0 0 64 64">
  <defs>
    <style>
      .cls-1 {
        fill: #e1e1e1;
        fill-rule: evenodd;
      }
    </style>
  </defs>
  <path class="cls-1" d="M45.705,51.26A23.476,23.476,0,0,0,55,40.625L46.706,36Q40.758,47,30.182,47q-8.245,0-12.873-5.631l2.671-3.662L8,36.5l3.226,13.072,2.941-4.064a21.243,21.243,0,0,0,8.146,7.1A22.871,22.871,0,0,0,32.589,55a24.39,24.39,0,0,0,13.116-3.74h0ZM32.81,16q8.24,0,12.87,5.629l-2.66,3.662L55,26.5,51.775,13.426l-2.963,4.066a21.347,21.347,0,0,0-8.143-7.065A22.565,22.565,0,0,0,30.4,8a24.156,24.156,0,0,0-13.107,3.777A23.487,23.487,0,0,0,8,22.375L16.294,27Q22.239,16,32.81,16h0Z"/>
</svg>
