<?xml version="1.0" encoding="utf-8"?>
<!-- Generator: Adobe Illustrator 27.4.1, SVG Export Plug-In . SVG Version: 6.00 Build 0)  -->
<svg version="1.1" id="Layer_1" xmlns="http://www.w3.org/2000/svg" xmlns:xlink="http://www.w3.org/1999/xlink" x="0px" y="0px"
	 viewBox="0 0 12 12" style="enable-background:new 0 0 12 12;" xml:space="preserve">
<style type="text/css">
	.st0{fill:#FFFFFF;}
</style>
<path class="st0" d="M1.9,3.1V2c0-0.2-0.2-0.5-0.4-0.5S1,1.8,1,2v2.2c0,0.2,0.2,0.5,0.4,0.5h2.2C3.8,4.7,4,4.5,4,4.2
	C4,4,3.8,3.8,3.6,3.8h-1c0.7-1.2,2-1.9,3.5-1.9c2.3,0,4.1,1.8,4.1,4.1S8.3,10.1,6,10.1c-0.8,0-1.6-0.2-2.3-0.6
	C3.5,9.3,3.3,9.4,3.1,9.6C3,9.8,3,10.1,3.3,10.2C4,10.7,4.9,11,6,11c2.8,0,5-2.2,5-5S8.8,1,6,1C4.3,1,2.8,1.8,1.9,3.1z M6,3.5
	C5.8,3.5,5.6,3.7,5.6,4v2c0,0.1,0,0.2,0.1,0.3l1.4,1.5C7.3,8,7.6,8,7.7,7.8c0.2-0.2,0.2-0.5,0-0.6L6.4,5.8V4C6.4,3.7,6.2,3.5,6,3.5
	L6,3.5z"/>
</svg>
