<svg id="Logo" xmlns="http://www.w3.org/2000/svg" width="128" height="127.528" viewBox="1.795 0 111.411 111">
  <defs>
    <style>
      .cls-1 {
        fill-rule: evenodd;
      }
    </style>
  </defs>
  <path id="K" class="cls-1" d="M57.931,16.61c19.964,0,36.149,16.432,36.149,36.7s-16.184,36.7-36.149,36.7-36.148-16.432-36.148-36.7S37.967,16.61,57.931,16.61Zm6.53,16.351a31.973,31.973,0,0,1-2.106,9.371,20.7,20.7,0,0,1-1.8,3.479,13.618,13.618,0,0,1-2.578,2.974A12.131,12.131,0,0,1,49.826,51.7V32.961H41.511V74.2h8.315V64.1H59.86a9.623,9.623,0,0,1,4.324,1.291,9.769,9.769,0,0,1,1.608,1.234,7.7,7.7,0,0,1,1.386,1.8,10.636,10.636,0,0,1,1,2.5,12.605,12.605,0,0,1,.388,3.283h8.37a31.137,31.137,0,0,0-1.774-9.146A22.46,22.46,0,0,0,73.5,61.719a12.508,12.508,0,0,0-2.467-2.946A11.692,11.692,0,0,0,67.565,56.7a12.508,12.508,0,0,0-4.6-.786,20.787,20.787,0,0,0,4.823-5.162,30.962,30.962,0,0,0,1.774-3.114,26.657,26.657,0,0,0,1.58-3.984,33.914,33.914,0,0,0,1.109-4.882,37.76,37.76,0,0,0,.416-5.808h-8.2Z"/>
</svg>
