<svg xmlns="http://www.w3.org/2000/svg" xmlns:xlink="http://www.w3.org/1999/xlink" width="128" height="127.872" viewBox="-0.09 0 180.18 180">
  <defs>
    <style>
      .cls-1 {
        fill: #fff;
      }

      .cls-1, .cls-2 {
        fill-rule: evenodd;
      }
    </style>
    <clipPath id="clip-path">
      <rect width="180" height="180"/>
    </clipPath>
  </defs>
  <g clip-path="url(#clip-path)">
    <g id="Logo">
      <path id="K_Bg" data-name="K Bg" class="cls-1" d="M90.7,11.06c42.087,0,76.2,34.641,76.2,77.372S132.784,165.8,90.7,165.8s-76.2-34.641-76.2-77.372S48.611,11.06,90.7,11.06Z"/>
      <path id="K" class="cls-2" d="M90.7,11.06c42.087,0,76.2,34.641,76.2,77.372S132.784,165.8,90.7,165.8s-76.2-34.641-76.2-77.372S48.611,11.06,90.7,11.06Zm13.766,34.47a67.429,67.429,0,0,1-4.441,19.755,43.636,43.636,0,0,1-3.8,7.334,28.705,28.705,0,0,1-5.434,6.269,25.573,25.573,0,0,1-17.178,6.151V45.53H56.083v86.945H73.612V111.182H94.763a20.285,20.285,0,0,1,9.115,2.721,20.51,20.51,0,0,1,3.389,2.6,16.233,16.233,0,0,1,2.922,3.785,22.472,22.472,0,0,1,2.1,5.264,26.583,26.583,0,0,1,.818,6.921h17.646a65.658,65.658,0,0,0-3.739-19.282,47.4,47.4,0,0,0-3.506-7.038,26.35,26.35,0,0,0-5.2-6.211,24.656,24.656,0,0,0-7.3-4.377,26.364,26.364,0,0,0-9.7-1.656,43.815,43.815,0,0,0,10.166-10.883,65.086,65.086,0,0,0,3.74-6.565,56.221,56.221,0,0,0,3.33-8.4,71.35,71.35,0,0,0,2.337-10.291,79.521,79.521,0,0,0,.877-12.243h-17.3Z"/>
    </g>
  </g>
</svg>
