<svg xmlns="http://www.w3.org/2000/svg" width="16" height="16" viewBox="0 0 16 16">
  <defs>
    <style>
      .cls-1 {
        fill: #e1e1e1;
        fill-rule: evenodd;
      }
    </style>
  </defs>
  <path class="cls-1" d="M13.6,13l-0.571-.346a7.533,7.533,0,0,0,.189-8.21L13.783,4.1A8.2,8.2,0,0,1,13.6,13Zm-1.349-.816-0.571-.346a5.955,5.955,0,0,0,.192-6.579l0.57-.345A6.622,6.622,0,0,1,12.247,12.183Zm-1.925-1.165a4.362,4.362,0,0,0,.2-4.944l0.573-.347a5.05,5.05,0,0,1-.194,5.639ZM2,9.955v-3.1h2.19L9.032,4v8.8L4.186,9.955H2Z"/>
</svg>
