<svg xmlns="http://www.w3.org/2000/svg" width="20" height="20" viewBox="0 0 20 20">
  <defs>
    <style>
      .cls-1 {
        fill: #e1e1e1;
        fill-rule: evenodd;
      }
    </style>
  </defs>
  <path class="cls-1" d="M8.783,16.978l-1,.01L3.6,16.927c-0.072,0-.144-0.006-0.215-0.012l-0.285,0a1.049,1.049,0,0,1-.653-0.245C1.1,16.058-.03,14.4,0,11.756c0.04-3.38,1.8-4.417,1.8-4.417H1.816l4.8-4.162a1.072,1.072,0,0,1,1.553.438,1.333,1.333,0,0,1-.4,1.72L6.153,7.4,7.9,7.427V7.435c0.024,0,.049,0,0.074,0L17.2,7.522a1.193,1.193,0,0,1,1.108,1.262,1.185,1.185,0,0,1-1.138,1.229l-6.148-.039c0.372,0.207,1.19.6,1.183,1.088a1.206,1.206,0,0,1-1.117,1.27l-0.715-.017a1.585,1.585,0,0,1,.768,1.14,1.4,1.4,0,0,1-1.3,1.183,1.3,1.3,0,0,1,.519,1.2A1.046,1.046,0,0,1,9.327,17Z"/>
</svg>
