<svg xmlns="http://www.w3.org/2000/svg" width="1024" height="1024" viewBox="0 0 1024 1024">
  <defs>
    <style>
      .cls-1 {
        fill: #fff;
        stroke: red;
        stroke-width: 0;
        fill-rule: evenodd;
      }
    </style>
  </defs>
  <path class="cls-1" d="M598.515,408.14l78.739-71.013c-40.881-33.008-106.61-66.5-163.246-66.5-111.122,0-204.456,76.087-230.788,179L123.855,408.857c44.23-173.446,201.449-301.72,388.67-301.72,104.378,0,213.146,53.6,284.5,118.939l74.828-67.387L930.522,497.3Zm-221.9,283.64c40.88,33.009,106.609,66.505,163.246,66.505,111.122,0,204.456-76.087,230.787-179L930.009,620.05C885.779,793.5,728.56,921.771,541.339,921.771c-104.377,0-213.145-53.6-284.494-118.939l-74.829,67.387L123.343,531.61,455.35,620.767Z"/>
</svg>
