<svg xmlns="http://www.w3.org/2000/svg" xmlns:xlink="http://www.w3.org/1999/xlink" width="32" height="32" viewBox="0 0 32 32">
  <metadata><?xpacket begin="﻿" id="W5M0MpCehiHzreSzNTczkc9d"?>
<x:xmpmeta xmlns:x="adobe:ns:meta/" x:xmptk="Adobe XMP Core 5.6-c138 79.159824, 2016/09/14-01:09:01        ">
   <rdf:RDF xmlns:rdf="http://www.w3.org/1999/02/22-rdf-syntax-ns#">
      <rdf:Description rdf:about=""/>
   </rdf:RDF>
</x:xmpmeta>
                                                                                                    
                                                                                                    
                                                                                                    
                                                                                                    
                                                                                                    
                                                                                                    
                                                                                                    
                                                                                                    
                                                                                                    
                                                                                                    
                                                                                                    
                                                                                                    
                                                                                                    
                                                                                                    
                                                                                                    
                                                                                                    
                                                                                                    
                                                                                                    
                                                                                                    
                                                                                                    
                           
<?xpacket end="w"?></metadata>
<defs>
    <style>
      .cls-1 {
        fill: #211a2b;
        fill-rule: evenodd;
        filter: url(#filter);
      }

      .cls-2 {
        fill: none;
        stroke: #fff;
        stroke-width: 2px;
      }
    </style>
    <filter id="filter" x="5" y="10.75" width="21.125" height="12" filterUnits="userSpaceOnUse">
      <feFlood result="flood" flood-color="#fff"/>
      <feComposite result="composite" operator="in" in2="SourceGraphic"/>
      <feBlend result="blend" in2="SourceGraphic"/>
    </filter>
  </defs>
  <path id="SD" class="cls-1" d="M6.417,21.727a5.023,5.023,0,0,0,3.378,1.016,6.569,6.569,0,0,0,2.523-.423,3.318,3.318,0,0,0,1.566-1.293,3.65,3.65,0,0,0,.091-3.714,3.257,3.257,0,0,0-1.281-1.179,11.352,11.352,0,0,0-2.527-.835,6.155,6.155,0,0,1-2.152-.775,0.89,0.89,0,0,1-.348-0.7,0.845,0.845,0,0,1,.372-0.72,2.676,2.676,0,0,1,1.6-.419,2.361,2.361,0,0,1,1.483.391,1.99,1.99,0,0,1,.645,1.285l2.341-.1A3.379,3.379,0,0,0,12.947,11.7a4.9,4.9,0,0,0-3.287-.957,5.8,5.8,0,0,0-2.282.4A3.145,3.145,0,0,0,5.93,12.321a2.98,2.98,0,0,0-.5,1.657A3.018,3.018,0,0,0,6.5,16.312a6.358,6.358,0,0,0,2.642,1.147q1.463,0.364,1.875.506a1.929,1.929,0,0,1,.842.5,1.056,1.056,0,0,1,.241.7,1.424,1.424,0,0,1-.573,1.119,2.608,2.608,0,0,1-1.7.479,2.523,2.523,0,0,1-1.7-.538,2.779,2.779,0,0,1-.835-1.685l-2.278.221A4.421,4.421,0,0,0,6.417,21.727ZM16.4,22.537h4.406a7.083,7.083,0,0,0,2.072-.245,4.117,4.117,0,0,0,1.645-.926,5.111,5.111,0,0,0,1.242-2.049,7.621,7.621,0,0,0,.356-2.468,8.559,8.559,0,0,0-.38-2.741,5.068,5.068,0,0,0-1.107-1.879,3.881,3.881,0,0,0-1.748-1.068,8.363,8.363,0,0,0-2.207-.221H16.4v11.6ZM19.793,12.9a10.62,10.62,0,0,1,1.922.111,2.228,2.228,0,0,1,1.084.546,2.654,2.654,0,0,1,.665,1.123,6.928,6.928,0,0,1,.237,2.065,7.565,7.565,0,0,1-.237,2.124,2.455,2.455,0,0,1-.613,1.119,2.16,2.16,0,0,1-.945.482,6.377,6.377,0,0,1-1.416.111H18.741V12.9h1.052Z"/>
  <rect id="Rounded_Rectangle_1" data-name="Rounded Rectangle 1" class="cls-2" x="1" y="5" width="30" height="22" rx="5" ry="5"/>
</svg>
