<svg xmlns="http://www.w3.org/2000/svg" xmlns:xlink="http://www.w3.org/1999/xlink" width="32" height="32" viewBox="0 0 32 32">
  <metadata><?xpacket begin="﻿" id="W5M0MpCehiHzreSzNTczkc9d"?>
<x:xmpmeta xmlns:x="adobe:ns:meta/" x:xmptk="Adobe XMP Core 5.6-c138 79.159824, 2016/09/14-01:09:01        ">
   <rdf:RDF xmlns:rdf="http://www.w3.org/1999/02/22-rdf-syntax-ns#">
      <rdf:Description rdf:about=""/>
   </rdf:RDF>
</x:xmpmeta>
                                                                                                    
                                                                                                    
                                                                                                    
                                                                                                    
                                                                                                    
                                                                                                    
                                                                                                    
                                                                                                    
                                                                                                    
                                                                                                    
                                                                                                    
                                                                                                    
                                                                                                    
                                                                                                    
                                                                                                    
                                                                                                    
                                                                                                    
                                                                                                    
                                                                                                    
                                                                                                    
                           
<?xpacket end="w"?></metadata>
<defs>
    <style>
      .cls-1 {
        fill: #211a2b;
        fill-rule: evenodd;
        filter: url(#filter);
      }

      .cls-2 {
        fill: none;
        stroke: #fff;
        stroke-width: 2px;
      }
    </style>
    <filter id="filter" x="5.625" y="10.938" width="21.375" height="11.594" filterUnits="userSpaceOnUse">
      <feFlood result="flood" flood-color="#fff"/>
      <feComposite result="composite" operator="in" in2="SourceGraphic"/>
      <feBlend result="blend" in2="SourceGraphic"/>
    </filter>
  </defs>
  <path id="HD" class="cls-1" d="M7.951,22.537v-5.07h4.588v5.07h2.341v-11.6H12.539v4.564H7.951V10.941H5.61v11.6H7.951Zm9.342,0H21.7a7.084,7.084,0,0,0,2.072-.245,4.117,4.117,0,0,0,1.645-.926,5.112,5.112,0,0,0,1.242-2.049,7.621,7.621,0,0,0,.356-2.468,8.556,8.556,0,0,0-.38-2.741,5.068,5.068,0,0,0-1.107-1.879,3.88,3.88,0,0,0-1.748-1.068,8.364,8.364,0,0,0-2.207-.221H17.293v11.6ZM20.687,12.9a10.622,10.622,0,0,1,1.922.111,2.229,2.229,0,0,1,1.084.546,2.655,2.655,0,0,1,.664,1.123,6.928,6.928,0,0,1,.237,2.065,7.565,7.565,0,0,1-.237,2.124,2.455,2.455,0,0,1-.613,1.119,2.161,2.161,0,0,1-.945.482,6.377,6.377,0,0,1-1.416.111H19.635V12.9h1.052Z"/>
  <rect id="Rounded_Rectangle_1" data-name="Rounded Rectangle 1" class="cls-2" x="1" y="5" width="30" height="22" rx="5" ry="5"/>
</svg>
