<svg id="Logo" xmlns="http://www.w3.org/2000/svg" width="120" height="68" viewBox="0 0 120 68">
  <defs>
    <style>
      .cls-1 {
        fill: #1b1b1e;
      }

      .cls-2 {
        fill: #d7d7d7;
        fill-rule: evenodd;
      }
    </style>
  </defs>
  <rect id="Bg" class="cls-1" width="120" height="68"/>
  <path id="K" class="cls-2" d="M59.934,15.961A18.353,18.353,0,1,1,41.86,34.312,18.214,18.214,0,0,1,59.934,15.961ZM63.2,24.137a15.991,15.991,0,0,1-1.053,4.685,10.347,10.347,0,0,1-.9,1.739,6.81,6.81,0,0,1-1.289,1.487,6.065,6.065,0,0,1-4.074,1.459V24.137H51.724V44.758h4.157v-5.05H60.9a4.812,4.812,0,0,1,2.162.645,4.889,4.889,0,0,1,.8.617,3.849,3.849,0,0,1,.693.9,5.321,5.321,0,0,1,.5,1.249,6.306,6.306,0,0,1,.194,1.641h4.185a15.568,15.568,0,0,0-.887-4.573,11.247,11.247,0,0,0-.832-1.669,6.256,6.256,0,0,0-1.233-1.473A5.844,5.844,0,0,0,64.751,36a6.254,6.254,0,0,0-2.3-.393,10.392,10.392,0,0,0,2.411-2.581,15.467,15.467,0,0,0,.887-1.557,13.339,13.339,0,0,0,.79-1.992,16.947,16.947,0,0,0,.554-2.441,18.88,18.88,0,0,0,.208-2.9H63.2Z"/>
</svg>
