<?xml version="1.0" encoding="utf-8"?>
<!-- Generator: Adobe Illustrator 19.2.1, SVG Export Plug-In . SVG Version: 6.00 Build 0)  -->
<svg version="1.1" id="Capa_1" xmlns="http://www.w3.org/2000/svg" xmlns:xlink="http://www.w3.org/1999/xlink" x="0px" y="0px"
	 width="24px" height="24px" viewBox="0 0 24 24" style="enable-background:new 0 0 24 24;" xml:space="preserve">
<style type="text/css">
	.st0{fill:#E6E7E8;stroke:#E6E7E8;stroke-miterlimit:10;}
</style>
<g>
	<g>
		<path class="st0" d="M23,10.9c0-0.1-1.1-1.5-3-2.9c-2.4-1.8-5.2-2.9-7.8-2.9c-2.5,0-5.3,1-7.7,2.9c-1.9,1.4-3,2.9-3,2.9L1,11.7
			l0.5,0.7c0,0.1,1.1,1.5,3,2.9c2.4,1.8,5.2,2.9,7.8,2.9s5.3-1,7.8-2.9c1.8-1.4,2.8-2.9,2.9-2.9l0.5-0.7L23,10.9z M22.3,11.9
			c0,0-1.1,1.4-2.9,2.8c-2.3,1.8-4.8,2.8-7.3,2.8s-4.9-0.9-7.3-2.8c-1.8-1.4-2.7-2.8-2.9-2.8L2,11.7l0.1-0.3c0,0,1.1-1.4,2.9-2.8
			C7.2,6.9,9.8,6,12.2,6s5,0.9,7.3,2.8c1.8,1.4,2.8,2.6,2.9,2.8l0.2,0.2L22.3,11.9z"/>
		<path class="st0" d="M12.2,7.2c-2.3,0-4.2,2-4.2,4.4S9.9,16,12.2,16s4.2-2,4.2-4.4S14.5,7.2,12.2,7.2z M12.2,15.3
			c-1.9,0-3.4-1.6-3.4-3.6s1.5-3.6,3.4-3.6s3.4,1.6,3.4,3.6S14.2,15.3,12.2,15.3z"/>
	</g>
</g>
</svg>
