<svg xmlns="http://www.w3.org/2000/svg" width="16" height="16" viewBox="0 0 500 500">
  <defs>
    <style>
      .cls-1 {
        fill: #00aeef;
        fill-rule: evenodd;
      }
    </style>
  </defs>
  <path id="Rounded_Rectangle_2" data-name="Rounded Rectangle 2" class="cls-1" d="M444.559,316L318.5,445.06c-16.066,16.448-41.389,17.77-56.56,2.952L47.678,238.731c-8.912-8.7-12.331-21.041-10.385-33.074-0.1-.211-0.2-0.417-0.294-0.657V65c3.968-18.281,22.841-31.29,39.032-27.775L203.374,39.9a36.9,36.9,0,0,1,28.544,10.2L446.18,259.387C461.351,274.205,460.625,299.552,444.559,316ZM129,86a42,42,0,1,1-42,42A42,42,0,0,1,129,86Z"/>
</svg>
