<?xml version="1.0" encoding="utf-8"?>
<!-- Generator: Adobe Illustrator 19.2.1, SVG Export Plug-In . SVG Version: 6.00 Build 0)  -->
<svg version="1.1" id="Capa_1" xmlns="http://www.w3.org/2000/svg" xmlns:xlink="http://www.w3.org/1999/xlink" x="0px" y="0px"
	 viewBox="0 0 512 512" style="enable-background:new 0 0 512 512;" xml:space="preserve">
<style type="text/css">
	.st0{fill:#E6E7E8;}
</style>
<g>
	<g>
		<path class="st0" d="M503.2,244.9c-1-1.3-25.8-32.4-68.4-63.7C378,139.4,316.2,117.4,256,117.4c-60.2,0-122,22.1-178.8,63.8
			c-42.5,31.2-67.3,62.4-68.4,63.7L0,256l8.8,11.1c1,1.3,25.8,32.4,68.4,63.7c56.8,41.8,118.7,63.8,178.8,63.8
			c60.2,0,122-22.1,178.8-63.8c42.5-31.2,67.3-62.4,68.4-63.7L512,256L503.2,244.9z M256,353.1c-53.5,0-100.4-39.7-97.1-97.1
			c1.3-22.6,22.3-63.6,30.8-70.9l-14.9-16.8c-2.2,9-39.3,48.6-38.3,87.6c0.9,34.6,14.8,65.8,38.3,87.6
			c-30.3-11.2-56.1-26.9-75.6-41.1C75.1,284.9,57,267.1,46.7,256c10.3-11.1,28.4-28.9,52.5-46.5c19.5-14.2,45.3-29.9,75.6-41.1
			l14.9,16.8c18.2-17,42.9-27.1,69.9-26.2c50.5,1.8,91.5,42.7,93.5,93.2C355.2,307.5,310.8,353.1,256,353.1z M412.8,302.5
			c-19.5,14.2-45.3,29.9-75.6,41.1c23.6-21.8,38.3-53,38.3-87.6s-14.8-65.8-38.3-87.6c30.3,11.2,56.1,26.9,75.6,41.1
			c24.1,17.6,42.2,35.4,52.5,46.5C455,267.1,436.9,284.9,412.8,302.5z"/>
		<path class="st0" d="M198.1,227.9c-4.7,7.7-4.4,6.5-6.3,17.6c-0.6,3.6-0.3,7.4-0.3,10.5c0,36.7,30.6,66.2,67.7,64.5
			c33.1-1.5,60-28.4,61.5-61.5c1.7-37.1-27.8-67.7-64.5-67.7c-13.8,0-26.5,4.3-37,11.6c-4.4,3.1-8.2,7.1-11.4,11.5L198.1,227.9z"/>
	</g>
</g>
</svg>
