<svg xmlns="http://www.w3.org/2000/svg" width="64" height="64" viewBox="0 0 64 64">
  <defs>
    <style>
      .cls-1 {
        fill: #e1e1e1;
        fill-rule: evenodd;
      }
    </style>
  </defs>
  <path class="cls-1" d="M9.6,7.4V58.071H54.711V7.4H9.6Zm7.132,47.41H11.89v-4.84h4.84v4.84Zm0-9.828H11.89V40.145h4.84v4.841Zm0-10.237H11.89V29.908h4.84v4.841Zm0-9.828H11.89V20.08h4.84v4.841Zm0-9.419H11.89V10.661h4.84V15.5ZM44.679,52.528H19.63V35.314H44.679V52.528Zm0-22.367H19.63V12.947H44.679V30.162Zm7.74,24.652H47.578v-4.84h4.841v4.84Zm0-9.828H47.578V40.145h4.841v4.841Zm0-10.237H47.578V29.908h4.841v4.841Zm0-9.828H47.578V20.08h4.841v4.841Zm0-9.419H47.578V10.661h4.841V15.5Z"/>
</svg>
