<svg xmlns="http://www.w3.org/2000/svg" width="16" height="16" viewBox="0 0 16 16">
  <defs>
    <style>
      .cls-1, .cls-2 {
        fill: #e1e1e1;
      }

      .cls-1 {
        fill-rule: evenodd;
      }

      .cls-2 {
        font-size: 9px;
        text-anchor: middle;
        font-family: Arial;
      }
    </style>
  </defs>
  <path class="cls-1" d="M5.374,2.239a6.208,6.208,0,0,1,5.013-1.112A6.606,6.606,0,0,1,14.75,4.04a7.025,7.025,0,0,1,1.159,5.239,6.627,6.627,0,0,1-2.726,4.489A6.5,6.5,0,0,1,8.164,14.9L8.38,13.52a5.2,5.2,0,0,0,4.022-.9,5.3,5.3,0,0,0,2.182-3.589,5.621,5.621,0,0,0-.93-4.192,5.284,5.284,0,0,0-3.49-2.326,4.96,4.96,0,0,0-4.009.884,5.4,5.4,0,0,0-2.18,3.739l2.65,0.507L2.754,10.443-0.011,6.361,2.644,6.876A6.724,6.724,0,0,1,5.374,2.239Z"/>
  <text id="_5" data-name="5" class="cls-2" x="9.591" y="11.421"><tspan x="9.591">5</tspan></text>
</svg>
