<svg xmlns="http://www.w3.org/2000/svg" width="16" height="16" viewBox="0 0 16 16">
  <defs>
    <style>
      .cls-1 {
        fill: #555;
      }

      .cls-2 {
        fill: #fff;
        fill-rule: evenodd;
      }
    </style>
  </defs>
  <circle class="cls-1" cx="8" cy="8" r="7.344"/>
  <path id="i" class="cls-2" d="M7.226,5.192a0.705,0.705,0,0,0,.466.106,0.654,0.654,0,0,0,.466-0.115,1.043,1.043,0,0,0,.1-0.595A1.1,1.1,0,0,0,8.15,3.966a0.6,0.6,0,0,0-.458-0.131,0.544,0.544,0,0,0-.466.156,1.612,1.612,0,0,0-.109.76A0.635,0.635,0,0,0,7.226,5.192Zm0.924,1.4a0.2,0.2,0,0,0-.087-0.168,0.4,0.4,0,0,0-.237-0.061H6.19a0.5,0.5,0,0,0-.335.1,0.436,0.436,0,0,0,.008.592,0.521,0.521,0,0,0,.349.1H7.3v3.581H5.6a0.551,0.551,0,0,0-.352.095,0.352,0.352,0,0,0-.117.29,0.385,0.385,0,0,0,.112.3,0.487,0.487,0,0,0,.335.1H9.91a0.556,0.556,0,0,0,.36-0.087,0.41,0.41,0,0,0,.1-0.316,0.375,0.375,0,0,0-.1-0.293,0.473,0.473,0,0,0-.321-0.092H8.15V6.588Z"/>
</svg>
