<svg xmlns="http://www.w3.org/2000/svg" width="16" height="16" viewBox="0 0 16 16">
  <defs>
    <style>
      .cls-1 {
        fill: #e1e1e1;
        fill-rule: evenodd;
      }
    </style>
  </defs>
  <path class="cls-1" d="M13.6,15l-0.571-.5A14.432,14.432,0,0,0,14.338,8.36a14.606,14.606,0,0,0-1.125-5.72l0.569-.5A15.893,15.893,0,0,1,15,8.36,15.733,15.733,0,0,1,13.6,15ZM12.247,13.82l-0.571-.5a11.365,11.365,0,0,0,1.09-4.96,11.547,11.547,0,0,0-.9-4.543l0.57-.5a12.84,12.84,0,0,1,.994,5.041A12.673,12.673,0,0,1,12.247,13.82Zm-1.925-1.682a8.294,8.294,0,0,0,.87-3.777A8.474,8.474,0,0,0,10.519,5l0.573-.5a9.788,9.788,0,0,1,.767,3.864,9.606,9.606,0,0,1-.961,4.28ZM2,10.6V6.119h2.19L9.032,2V14.719L4.186,10.6H2Z"/>
</svg>
