<svg xmlns="http://www.w3.org/2000/svg" width="16" height="16" viewBox="0 0 16 16">
  <defs>
    <style>
      .cls-1 {
        fill: #e1e1e1;
        fill-rule: evenodd;
      }
    </style>
  </defs>
  <path id="Shape_2_copy_4" data-name="Shape 2 copy 4" class="cls-1" d="M18.087,23.016L19.6,21.5l-3.024-3.028,1.878-1.9,3.024,3.051L23,18.1v4.92H18.087Zm0.366-7.57-1.878-1.9L19.6,10.514,18.087,9H23v4.92l-1.524-1.526Zm-4.524,7.57H9.015V18.1l1.524,1.525,3.024-3.051,1.878,1.9L12.417,21.5Zm-0.366-7.57-3.024-3.051L9.015,13.92V9h4.914l-1.512,1.514,3.024,3.028Z"/>
  <path id="Shape_2_copy" data-name="Shape 2 copy" class="cls-1" d="M2.087,23.016L3.6,21.5,0.575,18.474l1.879-1.9,3.024,3.051L7,18.1v4.92H2.087Zm0.366-7.57-1.879-1.9L3.6,10.514,2.087,9H7v4.92L5.477,12.395Zm-4.524,7.57H-6.985V18.1l1.524,1.525,3.024-3.051,1.878,1.9L-3.583,21.5Zm-0.366-7.57-3.024-3.051L-6.985,13.92V9h4.914l-1.512,1.514,3.024,3.028Z"/>
  <path id="Shape_2_copy_2" data-name="Shape 2 copy 2" class="cls-1" d="M18.087,7.016L19.6,5.5,16.575,2.474l1.878-1.9,3.024,3.051L23,2.1v4.92H18.087Zm0.366-7.57-1.878-1.9L19.6-5.486,18.087-7H23v4.92L21.477-3.606Zm-4.524,7.57H9.015V2.1l1.524,1.526L13.563,0.57l1.878,1.9L12.417,5.5ZM13.563-.554L10.539-3.606,9.015-2.08V-7h4.914L12.417-5.486l3.024,3.028Z"/>
  <path id="Shape_2_copy_3" data-name="Shape 2 copy 3" class="cls-1" d="M2.087,7.016L3.6,5.5,0.575,2.474l1.879-1.9L5.477,3.621,7,2.1v4.92H2.087ZM2.453-.554l-1.879-1.9L3.6-5.486,2.087-7H7v4.92L5.477-3.606Zm-4.524,7.57H-6.985V2.1l1.524,1.526L-2.437.57l1.878,1.9L-3.583,5.5ZM-2.437-.554L-5.461-3.606-6.985-2.08V-7h4.914L-3.583-5.486l3.024,3.028Z"/>
</svg>
