<svg xmlns="http://www.w3.org/2000/svg" width="16" height="16" viewBox="0 0 16 16">
  <defs>
    <style>
      .cls-1 {
        fill: #f0c236;
        fill-rule: evenodd;
      }
    </style>
  </defs>
  <path class="cls-1" d="M9.438,6.323l1.494-1.06A5.064,5.064,0,0,0,8.246,3.81,4.127,4.127,0,0,0,3.924,6.42L1.255,5.414a6.949,6.949,0,0,1,7.28-4.4A7.8,7.8,0,0,1,13.21,3.6l1.419-1.006,0.36,5.9Zm-4.37,4.414A5.064,5.064,0,0,0,7.754,12.19a4.127,4.127,0,0,0,4.322-2.61l2.669,1.005a6.949,6.949,0,0,1-7.28,4.4A7.8,7.8,0,0,1,2.79,12.4L1.371,13.407,1.01,7.51,6.562,9.677Z"/>
</svg>
