<svg xmlns="http://www.w3.org/2000/svg" width="16" height="16" viewBox="0 0 16 16">
  <defs>
    <style>
      .cls-1 {
        fill: #7e7e7e;
        fill-rule: evenodd;
      }
    </style>
  </defs>
  <path id="Rounded_Rectangle_1" data-name="Rounded Rectangle 1" class="cls-1" d="M2.5,3.375H13.375a1.25,1.25,0,0,1,1.25,1.25v7.5a1.25,1.25,0,0,1-1.25,1.25H2.5a1.25,1.25,0,0,1-1.25-1.25v-7.5A1.25,1.25,0,0,1,2.5,3.375Zm1.028,1h8.819a1.264,1.264,0,0,1,1.278,1.25V11.25a1.264,1.264,0,0,1-1.278,1.25H3.528A1.264,1.264,0,0,1,2.25,11.25V5.625A1.264,1.264,0,0,1,3.528,4.375Z"/>
  <path class="cls-1" d="M4.531,6.938h6.563L7.906,11.063h0Z"/>
</svg>
