<svg xmlns="http://www.w3.org/2000/svg" width="128" height="128" viewBox="0 0 128 128">
  <defs>
    <style>
      .cls-1 {
        fill: #e6e6e6;
        stroke: #b8b8b8;
        stroke-width: 2px;
        fill-rule: evenodd;
      }
    </style>
  </defs>
  <path id="Bell" class="cls-1" d="M12.61,108.093s-1.638-4.291-.106-7.539c2.394-5.1,15.2-20.561,17.527-24.479s0.019-33.663,2.963-45.205S51.244,10.576,57.48,7.91c8.826-2.269,7.107-1.809,13.011-.07s22.591,10.921,27.189,23.32,1.964,39.742,3.47,45.592,17.405,19.168,19.585,24.955a15.027,15.027,0,0,1,.1,6.436s-16.941.048-39.1-.037c-4.137-.016-8.046,13.576-14.379,13.468-7.3-.125-9.983-13.542-13.232-13.554C30.631,107.931,12.61,108.093,12.61,108.093Z"/>
</svg>
