<?xml version="1.0" encoding="utf-8"?>
<!-- Generator: Adobe Illustrator 21.0.2, SVG Export Plug-In . SVG Version: 6.00 Build 0)  -->
<svg version="1.1" id="Layer_1" xmlns="http://www.w3.org/2000/svg" xmlns:xlink="http://www.w3.org/1999/xlink" x="0px" y="0px"
	 viewBox="0 0 16 16" style="enable-background:new 0 0 16 16;" xml:space="preserve">
<style type="text/css">
	.st0{fill:#E1E1E1;}
	.st1{display:none;fill:#E1E1E1;}
</style>
<path class="st0" d="M2,10.6V6.1h2.2L9,2v12.7l-4.8-4.1H2z"/>
<path class="st0" d="M12.1,14.6c1.3-2,2-4.1,2-6.2c0-2-0.6-4-1.7-5.8L13.2,2c1.2,2,1.9,4.1,1.9,6.3c0,2.3-0.7,4.6-2.1,6.7"/>
<path class="st1" d="M13.4,15.1l-0.9-0.5"/>
<path class="st0" d="M9.9,13c0.9-1.5,1.4-3.1,1.4-4.7c0-1.4-0.3-2.9-1.1-4.2l0.9-0.6c0.8,1.5,1.2,3.2,1.2,4.8c0,1.8-0.5,3.7-1.5,5.3
	L9.9,13z"/>
</svg>
