<svg xmlns="http://www.w3.org/2000/svg" width="64" height="64" viewBox="0 0 64 64">
  <defs>
    <style>
      .cls-1 {
        fill: #e1e1e1;
        stroke: #252525;
        stroke-width: 0;
        fill-rule: evenodd;
      }
    </style>
  </defs>
  <path class="cls-1" d="M32.006,55.134c-24.689,0-21.419-3.34-21.419-7.46,0-3.331,3.7-16.425,12.351-18.728,2.051-.546,2.445,5.9,9.068,5.9,6.779,0,7.021-6.15,8.742-5.771C49.97,31.1,53.425,44.2,53.425,47.674,53.425,51.794,56.583,55.134,32.006,55.134Zm-0.057-21.2c-5.615,0-10.167-9.162-10.167-14.82a10.167,10.167,0,1,1,20.333,0C42.116,24.767,37.564,33.93,31.949,33.93Z"/>
</svg>
