<svg id="Row1" xmlns="http://www.w3.org/2000/svg" width="125" height="78" viewBox="0 0 125 78">
  <defs>
    <style>
      .cls-1 {
        fill: none;
        stroke: #e3e3e3;
        stroke-width: 3px;
      }

      .cls-1, .cls-2 {
        fill-rule: evenodd;
      }

      .cls-2 {
        fill: #e3e3e3;
        stroke: #ed2024;
        stroke-width: 0;
      }
    </style>
  </defs>
  <path id="Rounded_Rectangle_1" data-name="Rounded Rectangle 1" class="cls-1" d="M27.625,8.67H96.969a20,20,0,0,1,20,20V49.3a20,20,0,0,1-20,20H27.625a20,20,0,0,1-20-20V28.67A20,20,0,0,1,27.625,8.67Z"/>
  <path id="Key_copy" data-name="Key copy" class="cls-2" d="M22.5,19.8h8.906v8.281H22.5V19.8Z"/>
  <path id="Key_copy_2" data-name="Key copy 2" class="cls-2" d="M40.5,19.8h8.906v8.281H40.5V19.8Z"/>
  <path id="Key_copy_3" data-name="Key copy 3" class="cls-2" d="M58.5,19.8h8.906v8.281H58.5V19.8Z"/>
  <path id="Key_copy_4" data-name="Key copy 4" class="cls-2" d="M76.5,19.8h8.906v8.281H76.5V19.8Z"/>
  <path id="Key_copy_5" data-name="Key copy 5" class="cls-2" d="M94.5,19.8h8.906v8.281H94.5V19.8Z"/>
  <path id="Key_copy-2" data-name="Key copy" class="cls-2" d="M30.911,34.563h8.938v9.156H30.911V34.563Z"/>
  <path id="Key_copy_2-2" data-name="Key copy 2" class="cls-2" d="M48.943,34.563h8.906v9.156H48.943V34.563Z"/>
  <path id="Key_copy_3-2" data-name="Key copy 3" class="cls-2" d="M66.943,34.563h8.906v9.156H66.943V34.563Z"/>
  <path id="Key_copy_4-2" data-name="Key copy 4" class="cls-2" d="M84.943,34.563h8.906v9.156H84.943V34.563Z"/>
  <path id="Key_copy_2-3" data-name="Key copy 2" class="cls-2" d="M37.009,49.969H90.9V58.25H37.009V49.969Z"/>
</svg>
