<svg id="Logo" xmlns="http://www.w3.org/2000/svg" width="600" height="110" viewBox="0 0 600 110">
  <metadata><?xpacket begin="﻿" id="W5M0MpCehiHzreSzNTczkc9d"?>
<x:xmpmeta xmlns:x="adobe:ns:meta/" x:xmptk="Adobe XMP Core 5.6-c138 79.159824, 2016/09/14-01:09:01        ">
   <rdf:RDF xmlns:rdf="http://www.w3.org/1999/02/22-rdf-syntax-ns#">
      <rdf:Description rdf:about=""/>
   </rdf:RDF>
</x:xmpmeta>
                                                                                                    
                                                                                                    
                                                                                                    
                                                                                                    
                                                                                                    
                                                                                                    
                                                                                                    
                                                                                                    
                                                                                                    
                                                                                                    
                                                                                                    
                                                                                                    
                                                                                                    
                                                                                                    
                                                                                                    
                                                                                                    
                                                                                                    
                                                                                                    
                                                                                                    
                                                                                                    
                           
<?xpacket end="w"?></metadata>
<defs>
    <style>
      .cls-1 {
        fill: #d7d7d7;
        fill-rule: evenodd;
      }
    </style>
  </defs>
  <path id="ollaborate" class="cls-1" d="M138.675,74.475a22.681,22.681,0,0,0,7.135-4.9,23.549,23.549,0,0,0,4.828-7.23,22.812,22.812,0,0,0,0-17.687,23.574,23.574,0,0,0-4.828-7.23,22.712,22.712,0,0,0-7.135-4.9,22.24,22.24,0,0,0-17.529,0,22.7,22.7,0,0,0-7.135,4.9,23.574,23.574,0,0,0-4.828,7.23,22.812,22.812,0,0,0,0,17.687,23.549,23.549,0,0,0,4.828,7.23,22.67,22.67,0,0,0,7.135,4.9A22.241,22.241,0,0,0,138.675,74.475Zm-3.659-33.327a13.588,13.588,0,0,1,4.213,2.886,13.725,13.725,0,0,1,2.86,4.251,13.526,13.526,0,0,1,0,10.426,13.714,13.714,0,0,1-2.86,4.251,13.556,13.556,0,0,1-4.213,2.886,12.536,12.536,0,0,1-5.1,1.055,12.677,12.677,0,0,1-5.167-1.055,13.17,13.17,0,0,1-4.182-2.886,13.949,13.949,0,0,1-2.83-4.251,13.526,13.526,0,0,1,0-10.426,13.961,13.961,0,0,1,2.83-4.251,13.2,13.2,0,0,1,4.182-2.886,12.692,12.692,0,0,1,5.167-1.055A12.551,12.551,0,0,1,135.016,41.148Zm60.153,35.189V66.779h-21.22v-36h-9.41V76.337h30.63Zm44.592,0V66.779h-21.22v-36h-9.41V76.337h30.63Zm53.2,0L276.849,30.784H265.778L249.664,76.337h10.21l2.337-6.7h18.206l2.337,6.7h10.21Zm-21.65-32.4L277.1,60.263H265.532Zm62.613,6.64a8.9,8.9,0,0,0,.646-1.334A8.622,8.622,0,0,0,335,47.7a11.828,11.828,0,0,0,.154-2.079,14.167,14.167,0,0,0-1.538-6.858,14.494,14.494,0,0,0-3.813-4.593,14.683,14.683,0,0,0-4.951-2.544,17.885,17.885,0,0,0-4.952-.776H304.281V76.337H319.9q1.783,0,3.937-.031a30.291,30.291,0,0,0,4.305-.372,20.733,20.733,0,0,0,4.183-1.117,11.26,11.26,0,0,0,3.6-2.2,10.425,10.425,0,0,0,2.522-3.631,13.868,13.868,0,0,0,.953-5.492q0-.124-0.123-1.427a14.421,14.421,0,0,0-.707-3.072A15.358,15.358,0,0,0,336.7,55.3a10.879,10.879,0,0,0-3.629-3.289Q333.558,51.2,333.927,50.581Zm-19.99-9.93H319.9a11.526,11.526,0,0,1,1.415.124,5.428,5.428,0,0,1,1.845.621,4.57,4.57,0,0,1,1.6,1.489,4.8,4.8,0,0,1,.677,2.731,3.827,3.827,0,0,1-.584,2.358,2.616,2.616,0,0,1-1.415.962,6.311,6.311,0,0,1-1.814.186c-0.657-.02-1.23-0.031-1.723-0.031h-5.966v-8.44Zm0,25.941V59.146H320.7a17.8,17.8,0,0,1,6.058.745,2.851,2.851,0,0,1,1.876,2.917,2.953,2.953,0,0,1-1.876,3.01,17.117,17.117,0,0,1-6.058.776h-6.766Zm68.61,7.882a22.681,22.681,0,0,0,7.135-4.9,23.549,23.549,0,0,0,4.828-7.23,22.812,22.812,0,0,0,0-17.687,23.574,23.574,0,0,0-4.828-7.23,22.712,22.712,0,0,0-7.135-4.9,22.24,22.24,0,0,0-17.529,0,22.712,22.712,0,0,0-7.135,4.9,23.592,23.592,0,0,0-4.828,7.23,22.812,22.812,0,0,0,0,17.687,23.567,23.567,0,0,0,4.828,7.23,22.681,22.681,0,0,0,7.135,4.9A22.241,22.241,0,0,0,382.547,74.475Zm-3.659-33.327a13.588,13.588,0,0,1,4.213,2.886,13.725,13.725,0,0,1,2.86,4.251,13.514,13.514,0,0,1,0,10.426,13.714,13.714,0,0,1-2.86,4.251,13.556,13.556,0,0,1-4.213,2.886,12.529,12.529,0,0,1-5.1,1.055,12.677,12.677,0,0,1-5.167-1.055,13.181,13.181,0,0,1-4.182-2.886,13.949,13.949,0,0,1-2.83-4.251,13.526,13.526,0,0,1,0-10.426,13.961,13.961,0,0,1,2.83-4.251,13.212,13.212,0,0,1,4.182-2.886,12.692,12.692,0,0,1,5.167-1.055A12.544,12.544,0,0,1,378.888,41.148Zm66.765,14.584a16.045,16.045,0,0,0,1.076-6.144q0-9-5.1-14.15a13.865,13.865,0,0,0-3.567-2.669,20.815,20.815,0,0,0-3.414-1.4,13.719,13.719,0,0,0-2.675-.559q-1.107-.093-1.354-0.093H410.256V76.337h9.226V65.165h11.132a9.86,9.86,0,0,1,3.875.683,8.062,8.062,0,0,1,2.676,1.8,9.063,9.063,0,0,1,1.691,2.42,13.778,13.778,0,0,1,.923,2.544,15.244,15.244,0,0,1,.4,2.265q0.092,1.024.092,1.459h9.287a24.521,24.521,0,0,0-.369-4.1,22.16,22.16,0,0,0-1.2-4.313,23.42,23.42,0,0,0-2.122-4.158,17.9,17.9,0,0,0-3.075-3.631A13.488,13.488,0,0,0,445.653,55.732Zm-26.171.062v-15.7h11.071a8.38,8.38,0,0,1,1.784.279,5.643,5.643,0,0,1,2.306,1.241,7.744,7.744,0,0,1,1.968,2.855,12.978,12.978,0,0,1,.831,5.12,6.027,6.027,0,0,1-.769,3.258,5.582,5.582,0,0,1-1.876,1.862,6.981,6.981,0,0,1-2.276.869,10.824,10.824,0,0,1-1.907.217H419.482ZM499.87,76.337L483.756,30.784H472.684L456.57,76.337h10.21l2.337-6.7h18.206l2.337,6.7h10.21Zm-21.65-32.4L484,60.263H472.438Zm62.244-13.157H510.141v9.433H520.6v36.12h9.41V40.217h10.456V30.784h0Zm45.33,9.433V30.784H555.348V76.274h30.446v-9.5H564.7v-7.82h20.3v-9.5H564.7V40.217h21.1Z"/>
  <path id="K" class="cls-1" d="M58.495,11C81.41,11,99.987,29.8,99.987,53S81.41,94.989,58.495,94.989,17,76.188,17,53,35.579,11,58.495,11Zm7.5,18.708a36.486,36.486,0,0,1-2.418,10.722,23.653,23.653,0,0,1-2.068,3.98,15.6,15.6,0,0,1-2.959,3.4,13.95,13.95,0,0,1-9.353,3.338V29.712H39.648V76.9h9.544V65.344H60.709a11.072,11.072,0,0,1,4.963,1.477,11.218,11.218,0,0,1,1.845,1.412,8.809,8.809,0,0,1,1.591,2.054,12.15,12.15,0,0,1,1.145,2.857A14.377,14.377,0,0,1,70.7,76.9h9.608A35.524,35.524,0,0,0,78.27,66.435a25.671,25.671,0,0,0-1.909-3.82,14.323,14.323,0,0,0-2.832-3.371,13.426,13.426,0,0,0-3.977-2.375,14.4,14.4,0,0,0-5.281-.9,23.809,23.809,0,0,0,5.536-5.907A35.351,35.351,0,0,0,71.843,46.5a30.444,30.444,0,0,0,1.813-4.558,38.7,38.7,0,0,0,1.273-5.586,43.077,43.077,0,0,0,.477-6.645H65.99Z"/>
</svg>
