<svg xmlns="http://www.w3.org/2000/svg" width="16" height="16" viewBox="0 0 128 128">
  <defs>
    <style>
      .cls-1 {
        fill: #b1b1b1;
        fill-rule: evenodd;
      }
    </style>
  </defs>
  <path id="_" data-name="📌" class="cls-1" d="M121.722,49.543L81.494,9.33A31.941,31.941,0,0,0,84.8,26.413L57.544,53.665c-10.366-6.6-21.736-9.523-31.764-8.406L52.3,71.785C40.564,84.693,14.264,116.3,10.333,120.236l-0.133.127c-1.584,1.583-1.1,2.073.484,0.492,3.473-3.462,35.592-30.211,48.6-42.084l26.5,26.506c1.11-9.933-1.739-21.17-8.192-31.446L105,46.428A31.693,31.693,0,0,0,121.722,49.543Z"/>
</svg>
