<?xml version="1.0" encoding="UTF-8"?><svg id="Layer_1" xmlns="http://www.w3.org/2000/svg" viewBox="0 0 462 486"><defs><style>.cls-1{fill:#eee;stroke-width:0px;}</style></defs><path class="cls-1" d="m225.95,455.05c-24.2-.18-51.29-2.76-77.38-12-4.69-1.66-9.26-3.72-13.78-5.82-16.34-7.61-25.67-19.48-28.82-38.18-14.76-87.48-30.62-174.78-46.01-262.15-.61-3.48-2.14-5.9-4.9-8.18-11.09-9.19-17.69-20.38-13.86-35.45,2-7.88,6.75-14.06,12.88-19.19,13.73-11.51,30.13-17.48,47.06-22.15,30.85-8.51,62.47-11.67,94.31-12.98,35.67-1.47,71.31-.99,106.83,2.95,26.7,2.96,53.18,7.27,77.98,18.14,8.44,3.7,16.76,8.43,23.88,14.24,18.81,15.33,18.86,37.29.53,53.15-3.95,3.41-5.82,6.99-6.7,12.02-13.38,76.41-26.96,152.78-40.48,229.16-2.15,12.13-4.5,24.23-6.28,36.41-1.49,10.19-6.35,18.05-14.45,24.15-14.16,10.68-30.57,15.97-47.54,19.83-19.75,4.49-39.82,6.02-63.27,6.06Zm29.1-67.4c-7.86-8.75-16.7-18.58-26.22-29.17-9.34,10.35-18.11,20.08-25.53,28.3,7.85,8.73,16.68,18.56,26.21,29.16,9.34-10.35,18.12-20.07,25.54-28.29Zm-52.51-154.66c8.91,9.14,18,18.47,27.26,27.98,8.8-9.17,17.74-18.48,25.95-27.02-8.9-8.9-18.13-18.13-27.05-27.05-8.7,8.68-17.85,17.81-26.15,26.09Zm26.55,50.18c-9.1,9.15-18.25,18.33-26.39,26.5,8.88,9.03,18.04,18.35,26.95,27.4,8.7-8.86,17.76-18.07,26.48-26.94-8.85-8.82-18.01-17.95-27.04-26.96Zm66.7-88.53c-8.36-8.25-16.44-16.42-24.81-24.28-1.1-1.03-4.54-1.38-5.46-.51-8.69,8.17-17.07,16.68-24.81,24.35,9.67,9.66,18.81,18.79,27.67,27.65,8.66-8.6,17.75-17.62,27.41-27.21Zm-132.97-.23c9.74,9.67,18.92,18.8,27.52,27.35,8.82-8.83,17.96-17.97,27.46-27.48-7.83-7.74-16.01-15.8-24.16-23.9-2.16-2.14-4.19-2.37-6.45-.12-8.13,8.11-16.31,16.17-24.38,24.15Zm143.67,89.57c-9.01,8.6-18.33,17.49-27.7,26.44,9.2,8.97,18.33,17.88,27.43,26.75,8.65-8.88,17.66-18.13,26.44-27.14-8.65-8.61-17.8-17.72-26.17-26.04Zm-88.76-165.38c-9.52-9.6-18.58-18.75-26.89-27.13-8.77,8.62-17.85,17.54-27.39,26.91,9.24,8.62,18.67,17.41,27.57,25.72,8.66-8.27,17.92-17.1,26.71-25.49Zm49.65-27.76c-8.84,8.84-17.87,17.87-27.06,27.07,9.18,8.78,18.53,17.73,27.11,25.94,8.78-8.2,18.23-17.03,27.57-25.76-9.52-9.39-18.61-18.36-27.62-27.26Zm-141.21,218.88c8.89,9.1,17.89,18.3,25.95,26.54,8.81-8.59,17.92-17.47,27.18-26.5-9.02-8.67-18.21-17.51-27.03-26-8.61,8.56-17.76,17.65-26.1,25.95Zm168.88,38.86c-9.15-8.89-18.41-17.89-27.44-26.66-8.67,8.64-17.83,17.76-26.77,26.66,8.98,8.96,18.14,18.08,26.86,26.78,8.92-8.73,18.13-17.76,27.35-26.78Zm-131.67.13c9.13,8.95,18.34,17.98,27.16,26.62,8.81-8.73,18-17.83,26.91-26.66-9-8.95-18.16-18.07-26.74-26.62-8.98,8.76-18.21,17.77-27.32,26.66Zm-49.37-180.46c-9.22,9.22-18.26,18.26-27.14,27.14,8.96,8.8,18.17,17.84,26.75,26.26,8.82-8.8,17.97-17.92,26.7-26.64-8.6-8.74-17.56-17.86-26.31-26.76Zm203.78,26.79c8.87,8.9,18.01,18.05,26.73,26.8,8.81-8.64,18.03-17.68,26.81-26.28-9.1-9.01-18.27-18.08-27.39-27.11-8.54,8.68-17.5,17.79-26.15,26.59Zm-50.37,104.51c9.39-9.52,18.34-18.6,27.12-27.5-8.75-8.59-17.95-17.61-26.44-25.95-8.69,8.61-17.91,17.76-26.67,26.45,8.38,8.71,17.14,17.8,25.99,27Zm-76.89-53.99c-9.02,8.85-18.12,17.78-26.58,26.07,8.89,9.09,17.88,18.29,27.02,27.64,8.71-8.99,17.6-18.16,26.28-27.12-8.76-8.72-17.92-17.83-26.73-26.59Zm-11.41-12.3c-8.93-8.52-18.17-17.35-26.94-25.72-8.42,8.25-17.65,17.3-26.5,25.98,8.86,9,17.82,18.09,26.31,26.7,8.91-8.86,17.95-17.84,27.13-26.96Zm126.93,27.07c8.79-8.93,17.75-18.02,26.55-26.95-8.84-8.64-18.07-17.68-26.21-25.63-8.89,8.46-18.14,17.26-27.11,25.79,8.99,9,17.91,17.93,26.77,26.79Zm-49.21-181.47c-6.08-6.03-12.21-12.1-18.33-18.17-2.64-2.62-13.61-4.58-16.21-2.16-7.12,6.63-13.79,13.73-20.36,20.37,9.52,9.37,18.61,18.33,27.42,27.01,8.79-8.65,17.9-17.62,27.49-27.06Zm-170.99,38.26c8.21,10.84,17.62,19.06,31.33,20.6,1.5.17,3.67.16,4.53-.73,6.43-6.68,12.61-13.61,18.14-19.65-8.32-8.63-17.4-18.05-25.8-26.76-9.42,8.87-18.83,17.73-28.19,26.54Zm258.33-26.97c-8.68,8.97-17.78,18.38-26.02,26.9,5.88,6.42,12,13.2,18.28,19.83.74.78,2.38,1.16,3.53,1.04,14.17-1.49,24.26-9.41,32.55-21-9.32-8.81-18.61-17.59-28.33-26.78ZM125.22,388.1c7.23,10.04,17.82,17.64,31.76,20.05,1.04.18,2.58-.5,3.4-1.29,6.58-6.34,13.04-12.81,19.55-19.26-9.61-9.26-18.92-18.23-28.51-27.47-8.17,8.73-17.04,18.19-26.19,27.97Zm207.96.08c-9.22-9.84-18.08-19.31-26.29-28.07-9.57,9.28-18.84,18.28-28.42,27.57,6.09,6.02,12.34,12,18.31,18.24,2.15,2.24,4.09,2.48,7.01,1.9,13.04-2.59,22.11-10.81,29.39-19.64ZM180.64,78.11c-3.6-3.21-7.73-5.99-10.66-9.71-4.82-6.12-10.29-8.65-17.97-6.52-3.96,1.1-8.98.3-12,2.47-5.66,4.06-10.23,9.65-14.81,14.17,9.59,9.72,18.56,18.81,27.43,27.81,8.93-9,17.94-18.07,28.01-28.21Zm124.87,27.78c8.92-9.02,17.97-18.18,27.58-27.9-4.26-4.08-8.87-8.62-13.64-12.98-1.03-.94-2.56-1.62-3.94-1.82-5.58-.83-11.19-1.5-16.81-2.06-1.2-.12-2.87.06-3.64.8-5.76,5.62-11.36,11.43-16.52,16.68,9.46,9.56,18.43,18.63,26.98,27.28Zm39.21,193.85c2.62-2.72,5.38-5.15,7.59-8,2.17-2.79,4.52-5.79,5.47-9.08,1.61-5.56,2.31-11.41,3.12-17.18.23-1.64.13-3.99-.86-5.01-5.05-5.27-10.44-10.21-15.6-15.17-8.81,9.03-17.84,18.28-26.24,26.9,8.49,8.81,17.37,18.04,26.52,27.55Zm-204.48-27.6c-8.61-8.8-17.54-17.93-26.56-27.14-3.57,3.53-6.95,7.45-10.91,10.65-4.85,3.91-5.52,8.22-4.74,14.29,1.54,12.04,4.84,22.62,16.07,29.21,8.63-8.91,17.52-18.1,26.14-27Zm204.69,49.26c-9.17,9.18-18.33,18.34-27.19,27.2,7.97,7.79,16.22,15.85,24.32,23.77,2.29-12.58,4.36-25.9,7.26-39.04,1.24-5.62-.07-9.27-4.39-11.92Zm-231.6.1c-4,2.39-5.56,5.89-4.24,11.28,2.01,8.23,3.22,16.66,4.76,25,.94,5.09,1.87,10.18,2.7,14.68,8.37-8.04,16.5-15.85,24.3-23.34-9.17-9.21-18.3-18.37-27.53-27.63ZM396.37,93.33c-1.34-1.63-2.37-3.81-4.09-4.83-7.64-4.54-15.26-9.23-23.31-12.93-8-3.68-8.23-3.19-13.25,3.7,9.21,9.12,18.38,18.2,27.36,27.09,4.04-3.97,8.39-8.24,13.29-13.03Zm-292.72-14.86c-3.13-1.66-6.81-5.23-8.9-4.46-8.82,3.24-17.31,7.49-25.6,11.97-2.98,1.61-5.03,4.93-7.2,7.15,5.04,4.94,9.41,9.22,13.5,13.23,8.96-8.86,18.17-17.97,28.2-27.89Zm279.13,64.57c-.36-.25-.71-.51-1.07-.76-8.11,5.78-19.35,5.58-26.85,14.4,7.59,6.8,14.84,13.3,22.03,19.74,1.88-10.66,3.88-22.02,5.89-33.38Zm-279.5,12.93c-7.75-7.62-18.24-8.39-26.66-13.52-.3.42-.59.85-.89,1.27,2.02,11.19,4.05,22.38,6.24,34.51,7.41-7.75,14.13-14.77,21.31-22.26Zm126.48-25.82c-6.51,6.41-13.28,13.08-19.67,19.37h39.16c-6.97-6.92-13.66-13.57-19.49-19.37Zm59.84,36.76c5.75,5.74,11.23,11.21,15.97,15.94,7.58-7.44,15.43-15.15,22.78-22.37-12.43,2.06-25.66,4.26-38.75,6.43Zm-137.34,16.2c5.34-5.25,10.87-10.69,16.46-16.19-13.06-2.16-26.32-4.36-39.66-6.57,7.94,7.78,15.74,15.44,23.2,22.76Zm98.12,233.03c10.87-1.15,20.98-2.21,31.09-3.28-4.97-5-9.55-9.62-14.17-14.27-5.16,5.35-10.66,11.05-16.92,17.54Zm-73.98-3.32c10.67,1.11,20.78,2.16,30.62,3.18-5.65-5.91-11.2-11.71-16.6-17.36-4.28,4.33-8.79,8.89-14.01,14.17Zm-6.05-265.58c-6.74-6.54-12.62-12.25-18.61-18.06-3.79,4.12-8,8.7-12.46,13.55,9.97,1.45,20.16,2.93,31.06,4.51Zm117.28.08c11.37-1.68,21.55-3.19,31.28-4.63-4.48-4.94-8.68-9.57-12.25-13.5-6.21,5.91-12.14,11.57-19.04,18.14Zm-58.8,36.8c4.74-4.98,9.22-9.68,13.33-14h-27.09c4.72,4.81,9.21,9.37,13.76,14Zm127.22,50.43c2.61,2.41,5.6,5.18,9.31,8.6,1.43-7.88,2.7-14.84,4.17-22.94-5,5.32-9.06,9.64-13.47,14.34Zm-254.3.5c-4.56-4.87-8.64-9.23-12.83-13.7,1.38,6.98,2.77,14.01,4.31,21.8,3.62-3.44,6.58-6.26,8.53-8.1ZM260.73,59.11c2.03,2.28,4.83,5.42,6.55,7.35,2.7-2.17,5.46-4.39,9.15-7.35h-15.7Zm-78.78-.02c3.53,3.66,6.11,6.35,8.15,8.46,3.28-2.93,6.35-5.68,9.46-8.46h-17.61Z"/></svg>