<svg xmlns="http://www.w3.org/2000/svg" xmlns:xlink="http://www.w3.org/1999/xlink" width="128" height="128" viewBox="0 0 128 128">
  <defs>
    <style>
      .cls-1 {
        fill: #f0f0f0;
        stroke: #464646;
      }

      .cls-1, .cls-2 {
        stroke-width: 1px;
      }

      .cls-1, .cls-2, .cls-4, .cls-5 {
        fill-rule: evenodd;
      }

      .cls-2 {
        stroke: #565656;
        fill: url(#linear-gradient);
        filter: url(#filter);
      }

      .cls-3 {
        opacity: 0.85;
      }

      .cls-4 {
        fill: #fff;
      }
    </style>
    <linearGradient id="linear-gradient" x1="86.406" y1="10.445" x2="109.656" y2="27.337" gradientUnits="userSpaceOnUse">
      <stop offset="0" stop-color="#dadada"/>
      <stop offset="1" stop-color="#f0f0f0"/>
    </linearGradient>
    <filter id="filter" x="79" y="3" width="34" height="36" filterUnits="userSpaceOnUse">
      <feOffset result="offset" dx="-2.121" dy="2.121" in="SourceAlpha"/>
      <feGaussianBlur result="blur" stdDeviation="2.236"/>
      <feFlood result="flood" flood-opacity="0.3"/>
      <feComposite result="composite" operator="in" in2="blur"/>
      <feBlend result="blend" in="SourceGraphic"/>
    </filter>
  </defs>
  <path id="Rounded_Rectangle_1" data-name="Rounded Rectangle 1" class="cls-1" d="M85.535,6.164l-61.982-.59A5.354,5.354,0,0,0,18.515,11.2V118.468a5.354,5.354,0,0,0,5.038,5.622h82.92a5.354,5.354,0,0,0,5.039-5.622l-1.236-86.622C110.277,32.822,86.169,6.164,85.535,6.164Z"/>
  <g style="fill: url(#linear-gradient); filter: url(#filter)">
    <path id="path" class="cls-2" d="M86.592,6.122L86.417,31.653l23.251-.176Z" style="stroke: inherit; filter: none; fill: inherit"/>
  </g>
  <use xlink:href="#path" style="stroke: #565656; filter: none; fill: none"/>
  <g id="Logo" class="cls-3">
    <path id="K_Bg" data-name="K Bg" class="cls-4" d="M64.7,43.771A27.857,27.857,0,1,1,37.268,71.624,27.646,27.646,0,0,1,64.7,43.771Z"/>
    <path id="K" class="cls-5" d="M64.7,43.771A27.857,27.857,0,1,1,37.268,71.624,27.646,27.646,0,0,1,64.7,43.771ZM69.658,56.18a24.267,24.267,0,0,1-1.6,7.112,15.708,15.708,0,0,1-1.367,2.64,10.337,10.337,0,0,1-1.956,2.257A9.207,9.207,0,0,1,58.551,70.4V56.18h-6.31v31.3h6.31V79.815h7.614a7.3,7.3,0,0,1,3.281.979,7.417,7.417,0,0,1,1.22.937,5.842,5.842,0,0,1,1.052,1.363,8.074,8.074,0,0,1,.757,1.9,9.565,9.565,0,0,1,.294,2.491h6.353a23.632,23.632,0,0,0-1.346-6.941A17.059,17.059,0,0,0,76.515,78a9.494,9.494,0,0,0-1.872-2.236,8.874,8.874,0,0,0-2.629-1.576,9.493,9.493,0,0,0-3.492-.6,15.773,15.773,0,0,0,3.66-3.918,23.5,23.5,0,0,0,1.346-2.364,20.227,20.227,0,0,0,1.2-3.024,25.724,25.724,0,0,0,.841-3.7,28.654,28.654,0,0,0,.316-4.408H69.658Z"/>
  </g>
</svg>
