<svg xmlns="http://www.w3.org/2000/svg" width="64" height="64" viewBox="0 0 64 64">
  <defs>
    <style>
      .cls-1 {
        fill: #e1e1e1;
        stroke: #252525;
        stroke-width: 0;
        fill-rule: evenodd;
      }
    </style>
  </defs>
  <path class="cls-1" d="M50.952,32.221l5.993,1.058-1.064,6.04L49.826,38.25a19.05,19.05,0,0,1-2.5,4.72l4.38,4.383L47.37,51.689,42.987,47.3a19.213,19.213,0,0,1-4.721,2.476l1.073,6.092L33.3,56.936,32.24,50.9a19.121,19.121,0,0,1-3.724-.28c-0.551-.1-1.09-0.221-1.62-0.362l-2.563,5.5-5.555-2.592,2.532-5.433a19.142,19.142,0,0,1-4.057-3.658l-5.146,2.973L9.042,41.734l5.037-2.91A19.009,19.009,0,0,1,12.717,31.7l-5.612-.99,1.064-6.04,5.551,0.979a19.048,19.048,0,0,1,2.593-5.04l-3.965-3.968,4.334-4.337,3.942,3.944a19.169,19.169,0,0,1,5.049-2.623L24.7,8.127l6.036-1.065,0.979,5.557a17.837,17.837,0,0,1,5.583.793l2.408-5.168,5.554,2.592L42.82,16.08a19.131,19.131,0,0,1,3.994,3.831l5.12-2.958L55,22.264,49.82,25.256A19.045,19.045,0,0,1,50.952,32.221Zm-17.53-9.448a9.12,9.12,0,1,0,7.393,10.565A9.114,9.114,0,0,0,33.422,22.773Z"/>
</svg>
